<svg viewBox="0 0 313.33 710.07" xmlns="http://www.w3.org/2000/svg" width="156" height="355">
    <defs>
        <linearGradient gradientTransform="rotate(90)" id="a769ca78-d298-44bf-bc15-efb581f913a2">
            <stop stop-color="#02C836" offset="0%"/>
            <stop stop-color="#0055ee" offset="100%"/>
        </linearGradient>
    </defs>
    <g>
        <path fill="url(#a769ca78-d298-44bf-bc15-efb581f913a2)" d="M154.1 57.03a7.64 7.64 0 1 0-7.64-7.64 7.64 7.64 0 0 0 7.64 7.64zm3.27-10.91a3.28 3.28 0 1 1-3.27 3.27 3.27 3.27 0 0 1 3.27-3.27zm-97.06 56.71c17.76 38.44 37.87 12 159.23 80.71 16.66 9.43 27.63-11.55 13.09-18.54-44.32-21.38-81.32-66.71-39.27-114.52C137.52-33.63 40.44 6.94 33.04 33.03c33.47 0 13.27 39.55 27.27 69.8zm87.25-69.8a16.36 16.36 0 1 1-16.36 16.36 16.36 16.36 0 0 1 16.35-16.36zm2.18 299.93c-10.23 30.67-73.15 42-84-9.82-.13-.6 4.81 37.48 21.81 73.07 5.28 13.06 55.51 90.64 147.23 50.17 41.15-18.15 65-68.86 58.21-110.13-4.89-59.06-65.12-121.37-212-177.79-75-28.81-39.27-81.8-39.27-81.8-93.17 102.29-8.89 149.36 44.6 174 65.32 30 72.45 55.21 63.41 82.3zm8.69 143.73c-43.59-9.4-69.12-32.4-92.67-73.93 20.46 74.74 6.83 125.66-6.55 157C45 593.09 40.63 623.56 45.53 648c3.73 22.07 16.94 42.31 37 53.57 24.15 13.53 54.25 10.92 74.17-8.66 16.72-16.43 23.64-42.22 11.22-63.22-9.41-15.9-28.13-25.54-46.47-21.75-15.83 3.27-28.62 15.87-29.76 32.35-.79 11.36 5 23.15 14.91 28.76 13.59 7.69 32.05 2 36.87-13.31a3.92 3.92 0 0 0-7.36-2.66l-.06.15c-6.68 16.71-29.5 9.69-32.08-5.9-4.84-29.21 36.8-31.53 47.75-9.8 14 27.8-16.53 53.07-42.85 45.79-14.07-3.89-25.4-11.59-31-28.58-12.38-54.74 17.11-96 96.67-126.44 119.08-45.41 136.4-120.53 138.77-150.63-17.92 73.48-86.29 113.91-154.89 99.02z" fill-rule="evenodd"/>
    </g>
</svg>
